<?xml version="1.0" encoding="UTF-8" standalone="no"?>
<!-- Created with Inkscape (http://www.inkscape.org/) -->

<svg
   xmlns:dc="http://purl.org/dc/elements/1.1/"
   xmlns:cc="http://creativecommons.org/ns#"
   xmlns:rdf="http://www.w3.org/1999/02/22-rdf-syntax-ns#"
   xmlns:svg="http://www.w3.org/2000/svg"
   xmlns="http://www.w3.org/2000/svg"
   xmlns:sodipodi="http://sodipodi.sourceforge.net/DTD/sodipodi-0.dtd"
   xmlns:inkscape="http://www.inkscape.org/namespaces/inkscape"
   version="1.1"
   id="svg1035"
   xml:space="preserve"
   width="591.05145"
   height="137.81058"
   viewBox="0 0 591.05145 137.81058"
   sodipodi:docname="logo@2x.svg"
   inkscape:version="0.92.3 (2405546, 2018-03-11)"><metadata
     id="metadata1041"><rdf:RDF><cc:Work
         rdf:about=""><dc:format>image/svg+xml</dc:format><dc:type
           rdf:resource="http://purl.org/dc/dcmitype/StillImage" /><dc:title></dc:title></cc:Work></rdf:RDF></metadata><defs
     id="defs1039"><clipPath
       clipPathUnits="userSpaceOnUse"
       id="clipPath1051"><path
         d="M 0,121.223 H 464.496 V 0 H 0 Z"
         id="path1049"
         inkscape:connector-curvature="0" /></clipPath><linearGradient
       x1="0"
       y1="0"
       x2="1"
       y2="0"
       gradientUnits="userSpaceOnUse"
       gradientTransform="matrix(59.824501,355.84396,-355.84396,59.824501,39.527271,-150.1783)"
       spreadMethod="pad"
       id="linearGradient1103"><stop
         style="stop-opacity:1;stop-color:#2c61af"
         offset="0"
         id="stop1097" /><stop
         style="stop-opacity:1;stop-color:#2c61af"
         offset="0.04359303"
         id="stop1099" /><stop
         style="stop-opacity:1;stop-color:#93dbde"
         offset="1"
         id="stop1101" /></linearGradient><linearGradient
       x1="0"
       y1="0"
       x2="1"
       y2="0"
       gradientUnits="userSpaceOnUse"
       gradientTransform="matrix(30.813248,183.2813,-183.2813,30.813248,34.221741,-71.997421)"
       spreadMethod="pad"
       id="linearGradient1125"><stop
         style="stop-opacity:1;stop-color:#2c61af"
         offset="0"
         id="stop1119" /><stop
         style="stop-opacity:1;stop-color:#2c61af"
         offset="0.04359303"
         id="stop1121" /><stop
         style="stop-opacity:1;stop-color:#93dbde"
         offset="1"
         id="stop1123" /></linearGradient><linearGradient
       x1="0"
       y1="0"
       x2="1"
       y2="0"
       gradientUnits="userSpaceOnUse"
       gradientTransform="matrix(-7.2735925,59.283913,-48.705441,0.8676808,63.39901,40.110477)"
       spreadMethod="pad"
       id="linearGradient1147"><stop
         style="stop-opacity:1;stop-color:#2c61af"
         offset="0"
         id="stop1141" /><stop
         style="stop-opacity:1;stop-color:#93dbde"
         offset="0.4000432"
         id="stop1143" /><stop
         style="stop-opacity:1;stop-color:#93dbde"
         offset="1"
         id="stop1145" /></linearGradient><linearGradient
       x1="0"
       y1="0"
       x2="1"
       y2="0"
       gradientUnits="userSpaceOnUse"
       gradientTransform="matrix(-53.743485,29.098781,-29.098781,-53.737213,96.193674,60.750746)"
       spreadMethod="pad"
       id="linearGradient1169"><stop
         style="stop-opacity:1;stop-color:#2b60af"
         offset="0"
         id="stop1163" /><stop
         style="stop-opacity:1;stop-color:#93dbde"
         offset="0.47008"
         id="stop1165" /><stop
         style="stop-opacity:1;stop-color:#93dbde"
         offset="1"
         id="stop1167" /></linearGradient><linearGradient
       x1="0"
       y1="0"
       x2="1"
       y2="0"
       gradientUnits="userSpaceOnUse"
       gradientTransform="matrix(-55.13434,26.855778,-26.855778,-55.13434,73.984755,50.670954)"
       spreadMethod="pad"
       id="linearGradient1191"><stop
         style="stop-opacity:1;stop-color:#2b60af"
         offset="0"
         id="stop1185" /><stop
         style="stop-opacity:1;stop-color:#93dbde"
         offset="0.47008"
         id="stop1187" /><stop
         style="stop-opacity:1;stop-color:#93dbde"
         offset="1"
         id="stop1189" /></linearGradient><linearGradient
       x1="0"
       y1="0"
       x2="1"
       y2="0"
       gradientUnits="userSpaceOnUse"
       gradientTransform="matrix(0,103.24185,-103.24185,0,61.708714,8.3235016)"
       spreadMethod="pad"
       id="linearGradient1213"><stop
         style="stop-opacity:1;stop-color:#afd935"
         offset="0"
         id="stop1207" /><stop
         style="stop-opacity:1;stop-color:#319e59"
         offset="0.92394116"
         id="stop1209" /><stop
         style="stop-opacity:1;stop-color:#319e59"
         offset="1"
         id="stop1211" /></linearGradient><linearGradient
       x1="0"
       y1="0"
       x2="1"
       y2="0"
       gradientUnits="userSpaceOnUse"
       gradientTransform="matrix(-6.8113003,54.065529,-54.065529,-6.8113003,97.302742,23.446716)"
       spreadMethod="pad"
       id="linearGradient1235"><stop
         style="stop-opacity:1;stop-color:#afd935"
         offset="0"
         id="stop1229" /><stop
         style="stop-opacity:1;stop-color:#319e59"
         offset="0.92394116"
         id="stop1231" /><stop
         style="stop-opacity:1;stop-color:#319e59"
         offset="1"
         id="stop1233" /></linearGradient><linearGradient
       x1="0"
       y1="0"
       x2="1"
       y2="0"
       gradientUnits="userSpaceOnUse"
       gradientTransform="matrix(-1.4945347,66.108963,-66.108963,-1.4945347,64.883919,11.703416)"
       spreadMethod="pad"
       id="linearGradient1257"><stop
         style="stop-opacity:1;stop-color:#afd935"
         offset="0"
         id="stop1251" /><stop
         style="stop-opacity:1;stop-color:#319e59"
         offset="0.92394116"
         id="stop1253" /><stop
         style="stop-opacity:1;stop-color:#319e59"
         offset="1"
         id="stop1255" /></linearGradient></defs><sodipodi:namedview
     pagecolor="#ffffff"
     bordercolor="#666666"
     borderopacity="1"
     objecttolerance="10"
     gridtolerance="10"
     shape-rendering="geometricPrecision"
     guidetolerance="10"
     inkscape:pageopacity="0"
     inkscape:pageshadow="2"
     inkscape:window-width="1920"
     inkscape:window-height="1017"
     id="namedview1037"
     showgrid="false"
     showguides="true"
     inkscape:guide-bbox="true"
     inkscape:zoom="2.201677"
     inkscape:cx="214.83009"
     inkscape:cy="55.33535"
     inkscape:window-x="-8"
     inkscape:window-y="-8"
     inkscape:window-maximized="1"
     inkscape:current-layer="g1043"><sodipodi:guide
       position="155.90431,6.1661508"
       orientation="0,1"
       id="guide1883"
       inkscape:locked="false" /><sodipodi:guide
       position="160.4463,27.059316"
       orientation="1,0"
       id="guide1885"
       inkscape:locked="false" /></sodipodi:namedview><g
     id="g1043"
     inkscape:groupmode="layer"
     inkscape:label="Ekwateur_Logo_v2"
     transform="matrix(1.3333333,0,0,-1.3333333,-13.512,148.904)"><g
       id="g1045"><g
         id="g1047"
         clip-path="url(#clipPath1051)"><g
           id="g1053"
           transform="translate(163.3359,57.1341)"><path
             d="M 0,0 C -0.3,7.881 -5.405,14.489 -14.266,14.489 -23.201,14.489 -28.307,8.106 -29.357,0 Z m 4.054,-3.605 h -33.636 c 0.149,-9.686 5.931,-17.496 15.917,-17.496 4.28,0 8.109,1.353 11.865,3.68 l 2.175,-3.153 c -4.129,-2.778 -8.934,-4.43 -14.115,-4.43 -13.141,0 -19.898,10.438 -19.898,21.775 0,11.187 6.232,21.473 19.372,21.473 12.99,0 19.222,-10.662 18.32,-21.849"
             style="fill:#3da9ab;fill-opacity:1;fill-rule:nonzero;stroke:none"
             id="path1055"
             inkscape:connector-curvature="0" /></g><g
           id="g1057"
           transform="translate(191.1894,54.3548)"><path
             d="m 0,0 c -1.051,-0.524 -2.178,-0.9 -3.304,-1.126 l -9.16,-1.803 V -21.55 h -4.129 v 57.817 l 4.129,0.373 V 1.127 l 7.359,1.35 C 2.103,4.431 6.457,8.258 6.758,18.846 v 1.651 h 3.979 V 18.846 C 10.513,10.737 7.658,5.332 3.604,2.103 L 14.492,-21.55 H 9.986"
             style="fill:#3da9ab;fill-opacity:1;fill-rule:nonzero;stroke:none"
             id="path1059"
             inkscape:connector-curvature="0" /></g><g
           id="g1061"
           transform="translate(278.4872,90.6214)"><path
             d="m 0,0 c -3.153,-19.299 -8.257,-40.32 -17.192,-57.815 h -4.13 c -6.457,12.763 -11.188,27.778 -14.492,42.121 -3.379,-14.343 -8.11,-29.358 -14.567,-42.121 h -4.132 C -63.446,-40.32 -68.552,-19.299 -71.705,0 h 4.129 c 3.003,-17.796 7.434,-37.017 15.168,-53.537 6.757,14.643 11.411,31.385 14.492,47.378 h 4.129 c 3.079,-15.993 7.734,-32.735 14.491,-47.378 7.734,16.52 12.164,35.741 15.167,53.537"
             style="fill:#3da9ab;fill-opacity:1;fill-rule:nonzero;stroke:none"
             id="path1063"
             inkscape:connector-curvature="0" /></g><g
           id="g1065"
           transform="translate(298.081,35.9584)"><path
             d="m 0,0 c 3.903,0 7.808,1.053 11.337,2.778 v 14.868 c -3.378,1.727 -7.284,2.703 -11.263,2.703 -4.505,0 -14.566,-0.376 -14.566,-9.761 C -14.492,3.08 -9.911,0 0,0 M 15.392,24.928 V 0.15 C 10.963,-1.727 7.058,-3.828 0,-3.828 c -12.84,0 -18.473,5.256 -18.473,14.416 0,11.112 11.565,13.516 18.473,13.516 4.955,0 8.183,-1.052 11.337,-2.255 v 2.18 c 0,7.657 -6.007,11.562 -11.713,11.562 -3.68,0 -7.584,-0.826 -10.962,-2.178 l -1.501,3.378 c 3.603,1.577 7.281,2.628 12.538,2.628 6.758,0 15.693,-4.729 15.693,-14.491"
             style="fill:#3da9ab;fill-opacity:1;fill-rule:nonzero;stroke:none"
             id="path1067"
             inkscape:connector-curvature="0" /></g><g
           id="g1069"
           transform="translate(338.7753,37.3861)"><path
             d="M 0,0 V -3.604 C -0.45,-3.98 -2.705,-4.58 -4.131,-4.58 c -6.757,0 -12.165,2.251 -12.165,12.087 v 39.045 l 4.132,0.376 V 37.466 H -0.526 L -0.902,33.711 H -12.164 V 7.883 c 0,-6.983 2.552,-8.56 8.033,-8.56 1.502,0 3.529,0.375 4.131,0.677"
             style="fill:#3da9ab;fill-opacity:1;fill-rule:nonzero;stroke:none"
             id="path1071"
             inkscape:connector-curvature="0" /></g><g
           id="g1073"
           transform="translate(377.6669,57.1341)"><path
             d="M 0,0 C -0.3,7.881 -5.405,14.489 -14.265,14.489 -23.2,14.489 -28.307,8.106 -29.357,0 Z m 4.056,-3.605 h -33.638 c 0.149,-9.686 5.931,-17.496 15.918,-17.496 4.279,0 8.108,1.353 11.862,3.68 l 2.178,-3.153 c -4.129,-2.778 -8.936,-4.43 -14.116,-4.43 -13.141,0 -19.899,10.438 -19.899,21.775 0,11.187 6.234,21.473 19.374,21.473 12.99,0 19.221,-10.662 18.321,-21.849"
             style="fill:#3da9ab;fill-opacity:1;fill-rule:nonzero;stroke:none"
             id="path1075"
             inkscape:connector-curvature="0" /></g><g
           id="g1077"
           transform="translate(420.163,36.2601)"><path
             d="m 0,0 c -4.656,-1.877 -8.561,-3.979 -15.693,-3.979 -6.758,0 -15.918,4.654 -15.918,14.492 v 27.703 l 4.13,0.376 V 11.563 C -27.481,3.904 -21.25,0 -15.618,0 -11.714,0 -7.659,1.05 -4.13,2.779 V 38.216 L 0,38.592"
             style="fill:#3da9ab;fill-opacity:1;fill-rule:nonzero;stroke:none"
             id="path1079"
             inkscape:connector-curvature="0" /></g><g
           id="g1081"
           transform="translate(452.2206,70.1966)"><path
             d="m 0,0 c -2.402,0.751 -5.181,1.202 -7.883,1.202 -5.632,0 -11.789,-3.979 -11.789,-11.638 v -26.955 h -4.13 V -9.31 c 0,9.762 8.936,14.492 15.694,14.492 3.829,0 6.832,-0.602 9.31,-1.502"
             style="fill:#3da9ab;fill-opacity:1;fill-rule:nonzero;stroke:none"
             id="path1083"
             inkscape:connector-curvature="0" /></g></g></g><g
       id="g1085"><g
         id="g1087"><g
           id="g1093"><g
             id="g1095"><path
               d="m 104.734,89.21 0.424,-0.674 c 0.364,-0.615 2.049,-4.679 2.049,-4.679 v 0 c 3.776,-8.511 5.728,-16.767 3.003,-29.393 v 0 c -2.027,-9.391 -2.027,-9.391 -15.257,-27.367 v 0 c 0.222,0.112 21.406,17.095 16.685,45.853 v 0 c -0.016,0.071 -0.015,0.075 -0.015,0.075 v 0 c -0.796,3.75 -1.94,7.935 -4.908,13.145 v 0 c -0.854,1.433 -2.084,3.291 -3.058,4.646 v 0 z m 2.338,-37.536 C 103.836,39.747 98.103,32.289 95.945,29.483 v 0 c -0.558,-0.727 -0.627,-0.879 -0.741,-1.131 v 0 C 96.25,29 109.193,43.22 110.612,61.125 v 0 c 0.925,11.682 -2.059,19.037 -3.662,22.989 v 0 c 0.536,-2.507 3.615,-19.577 0.122,-32.44 m 5.92,17.176 c -0.082,0.508 -0.172,1.044 -0.272,1.615 v 0 z m 0.21,-1.359 c -0.008,0.085 -0.015,0.167 -0.022,0.248 v 0 l -0.188,1.111 c 0.077,-0.479 0.147,-0.931 0.21,-1.359 M 106.9,40.112 c -0.776,-1.314 -0.68,-1.567 -0.622,-1.718 v 0 c 0.064,0.025 6.686,6.984 7.415,19.164 v 0 c 0.026,0.429 0.037,1 0.054,1.429 v 0 c -0.009,0.526 -0.013,1.123 -0.018,1.732 v 0 c -0.008,-0.403 -0.024,-0.845 -0.049,-1.461 v 0 c 0.022,0.651 0.041,1.279 0.043,1.956 v 0 c -0.008,0.596 -0.02,1.192 -0.042,1.733 v 0 c -0.062,1.2 -0.201,2.634 -0.479,4.544 v 0 c 0.425,-4.904 1.138,-14.797 -6.302,-27.379 m 6.762,23.22 c 0,0.012 -0.001,0.023 -0.002,0.033 v 0 z m 0.019,-0.385 c 0.032,-0.632 0.042,-1.198 0.042,-1.733 v 0 c 0.002,-0.166 0.004,-0.33 0.006,-0.495 v 0 c 0.01,0.65 -0.003,1.202 -0.045,2.227 v 0 l -0.022,0.386 c 0.007,-0.125 0.012,-0.253 0.019,-0.385 M 31.017,18.544 c 0.349,-0.256 0.699,-0.504 1.048,-0.744 v 0 c -0.776,0.565 -1.58,1.173 -2.253,1.664 v 0 c 0.361,-0.276 0.836,-0.652 1.205,-0.92 m 2.328,-1.643 c 1.809,-1.1 4.253,-2.511 6.129,-3.484 v 0 l 0.709,-0.333 C 44.818,11.2 52.571,8.047 64.779,10.102 v 0 c 0,0 0.007,0 0.013,0.002 v 0 l 0.005,0.002 c 0.009,0.002 0.013,0.002 0.013,0.002 v 0 c 0.008,0 0.012,0.002 0.012,0.002 v 0 c 0.009,0.001 0.012,0.001 0.017,0.003 v 0 l 0.011,0.001 c 0.003,0.002 0.009,0.003 0.009,0.003 v 0 c 0.009,0 0.014,0.003 0.014,0.003 v 0 c 0.756,0.134 1.264,0.235 2.01,0.402 v 0 c 0.019,0.003 0.039,0.008 0.059,0.013 v 0 c 0.022,0.006 0.04,0.009 0.06,0.013 v 0 c 0.02,0.005 0.041,0.01 0.061,0.013 v 0 c 0.02,0.005 0.039,0.011 0.058,0.016 v 0 c 0.021,0.004 0.042,0.01 0.061,0.014 v 0 c 0.021,0.003 0.04,0.008 0.061,0.013 v 0 c 0.02,0.006 0.04,0.011 0.061,0.013 v 0 c 0.02,0.007 0.038,0.009 0.06,0.016 v 0 l 0.08,0.019 c 0.626,0.177 0.658,0.254 0.734,0.435 v 0 c -0.011,0.011 -0.032,0.025 -0.043,0.035 v 0 c -0.231,0.06 -0.517,0.136 -1.444,-0.025 v 0 l -0.113,-0.022 -0.001,-10e-4 h -0.001 l -10e-4,10e-4 -0.002,-10e-4 c -0.106,-0.023 -0.212,-0.045 -0.317,-0.066 v 0 c -0.105,-0.023 -0.209,-0.044 -0.315,-0.064 v 0 c -0.105,-0.023 -0.21,-0.041 -0.316,-0.063 v 0 c -0.106,-0.019 -0.21,-0.04 -0.316,-0.059 v 0 c -0.107,-0.02 -0.212,-0.039 -0.317,-0.058 v 0 c -0.106,-0.019 -0.21,-0.036 -0.315,-0.057 v 0 C 64.57,10.69 64.466,10.673 64.36,10.656 v 0 c -0.106,-0.018 -0.212,-0.035 -0.317,-0.052 v 0 C 58.932,10.025 45.571,8.506 32.065,17.8 v 0 c 0.446,-0.324 0.883,-0.634 1.28,-0.899 m 50.476,-1.965 c -2.471,-2.263 -5.43,-3.97 -8.345,-4.823 v 0 c 0.578,0.158 1.191,0.325 1.689,0.478 v 0 l 0.746,0.246 c 2.635,1.151 3.04,1.326 4.771,2.639 v 0 c 0.088,0.066 0.175,0.135 0.262,0.203 v 0 c 0.085,0.07 0.17,0.141 0.254,0.21 v 0 c 0.087,0.073 0.171,0.144 0.256,0.217 v 0 c 0.085,0.072 0.168,0.146 0.253,0.221 v 0 c 0.081,0.075 0.166,0.15 0.248,0.225 v 0 c 0.084,0.078 0.165,0.153 0.249,0.233 v 0 c 0.081,0.078 0.164,0.158 0.244,0.237 v 0 c 0.082,0.081 0.164,0.164 0.245,0.245 v 0 l -0.002,0.001 h 0.002 v 0.002 l 0.002,0.001 v 0.002 h 0.001 c 0.278,0.288 0.298,0.386 0.318,0.473 v 0 c -0.013,0.004 -0.03,0.01 -0.054,0.01 v 0 c -0.108,0 -0.364,-0.098 -1.139,-0.82 M 80.654,14.465 C 78.951,13.405 74.966,10.921 69.251,9.452 v 0 C 65.537,8.498 62.581,8.339 60.6,8.351 v 0 c 0.905,-0.022 1.844,-0.04 2.624,-0.026 v 0 l 1.679,0.083 c 11.976,1.458 16.682,6.393 16.718,6.441 v 0 c -0.033,0.014 -0.078,0.033 -0.109,0.05 v 0 C 81.32,14.826 81.084,14.734 80.654,14.465 M 74.626,9.882 c 0.218,0.058 0.51,0.135 0.727,0.196 v 0 c 0.041,0.012 0.082,0.024 0.123,0.035 v 0 c -0.3,-0.081 -0.591,-0.158 -0.85,-0.231 M 60.6,8.351 c -0.59,0.014 -1.166,0.032 -1.673,0.045 v 0 C 59.367,8.377 59.926,8.355 60.6,8.351"
               style="fill:url(#linearGradient1103);stroke:none"
               id="path1105"
               inkscape:connector-curvature="0" /></g></g></g></g><g
       id="g1107"><g
         id="g1109"><g
           id="g1115"><g
             id="g1117"><path
               d="M 74.747,106.065 C 92.021,87.269 92.333,32.071 92.333,32.071 v 0 c 0.101,0.246 9.213,28.351 2.9,51.132 v 0 c -3.71,13.38 -17.953,25.601 -24.506,27.844 v 0 c -2.217,0.396 -3.874,0.621 -4.032,0.631 v 0 c 3.411,-0.786 2.957,-0.07 8.052,-5.613 M 87.569,89.189 c -1.609,3.546 -6.436,11.03 -8.656,14.315 v 0 c 0.844,-1.249 8.076,-7.364 10.488,-12.559 v 0 c 8.092,-14.452 6.516,-33.309 3.606,-51.53 v 0 c 0.314,15.215 0.552,36.584 -5.438,49.774 m -16.842,21.858 c 0.725,-0.13 1.508,-0.278 2.318,-0.442 v 0 c -0.845,0.204 -1.72,0.383 -2.63,0.543 v 0 c 0.102,-0.031 0.205,-0.065 0.312,-0.101 M 98.906,83.08 c 2.989,-6.122 3.502,-23.997 3.946,-22.937 v 0 c 4.856,11.614 -3.219,40.662 -22.883,48.486 v 0 c -0.947,0.374 -2.23,0.826 -3.2,1.127 v 0 c -1.227,0.318 -2.505,0.602 -3.724,0.849 v 0 C 84.008,107.976 89.93,101.457 98.906,83.08 m -9.429,20.902 c -0.051,0.036 -0.101,0.071 -0.149,0.106 v 0 l -1.316,0.804 z m 11.822,-11.79 c 3.976,-6.083 4.837,-12.603 5.525,-15.353 v 0 c 0.158,-0.633 0.336,-0.93 0.336,-1.188 v 0 c 0,7.006 -2,12.754 -2,12.754 v 0 c -1.811,2.764 -6.05,9.23 -14.615,14.914 v 0 l -1.068,0.663 c 2.73,-1.908 7.646,-5.406 11.822,-11.79 m 2.031,-0.948 c -0.05,0.069 -0.103,0.142 -0.158,0.219 v 0 l -0.669,0.867 z m 0.591,-0.822 -0.264,0.394 -0.327,0.428 c 0.258,-0.357 0.439,-0.608 0.591,-0.822 m 0.813,-1.212 c -0.363,0.559 -0.541,0.827 -0.813,1.212 v 0 z M 15.716,83.482 15.422,82.858 C 5.882,58.917 53.77,35.23 54.115,35.109 v 0 c 1.901,-0.66 1.71,0.425 -7.759,6.703 v 0 c 0,0 -37.45,27.743 -29.458,43.871 v 0 C 16.544,85.025 16.07,84.143 15.716,83.482 M 10.214,62.969 10.173,61.492 c 0.015,-0.532 0.037,-1.244 0.054,-1.777 v 0 c -0.023,0.127 -0.049,0.298 -0.073,0.427 v 0 c 0.033,-1.255 0.067,-2.272 0.118,-3.198 v 0 c -0.038,0.189 -0.062,0.354 -0.072,0.489 v 0 l 0.081,-1.276 c 0.095,-1.199 0.224,-2.162 0.352,-2.953 v 0 c -0.187,1.334 -0.291,2.448 -0.361,3.74 v 0 c 0.341,-1.73 1.773,-5.559 3.64,-8.642 v 0 c -0.062,0.062 -0.146,0.145 -0.208,0.207 v 0 c -1.66,1.66 -2.523,2.837 -2.807,3.226 v 0 c -0.079,0.417 -0.172,0.899 -0.264,1.469 v 0 c 0.159,-1.139 0.378,-2.437 0.685,-4.143 v 0 -0.003 C 21.319,12.867 65.073,18.795 67.956,22.221 v 0 c -0.21,0.536 -0.21,0.536 -1.701,0.971 v 0 C 52.518,27.199 12.176,38.965 10.549,63.205 v 0 l 0.721,7.658 c -0.803,-4.551 -0.868,-4.922 -1.056,-7.894 m 1.58,-14.723 c 5.338,-7.57 28.734,-22.447 48.888,-26.704 v 0 c -0.187,-0.02 -0.433,-0.047 -0.62,-0.065 v 0 c -0.067,-0.006 -1.31,-0.111 -3.363,-0.111 v 0 c -9.508,0 -36.437,2.24 -44.905,26.88"
               style="fill:url(#linearGradient1125);stroke:none"
               id="path1127"
               inkscape:connector-curvature="0" /></g></g></g></g><g
       id="g1129"><g
         id="g1131"><g
           id="g1137"><g
             id="g1139"><path
               d="M 41.236,86.312 C 47.414,72.523 47.334,72.671 51.423,65.884 v 0 C 57.319,56.1 70.791,40.585 74.075,39.921 v 0 l 0.23,0.09 c 0.286,0.484 0.773,0.751 0.398,1.169 v 0 C 49.048,69.683 39.547,95.021 43.348,93.121 v 0 c 3.448,-1.723 26.89,-27.058 37.846,-48.458 v 0 l 1.997,1.121 C 76.498,58.546 64.99,74.803 64.99,74.803 v 0 C 50.983,93.267 40.236,99.385 40.182,99.408 v 0 c -0.541,0.195 -0.999,0.295 -1.377,0.295 v 0 c -2.487,0 -1.488,-4.287 2.431,-13.391"
               style="fill:url(#linearGradient1147);stroke:none"
               id="path1149"
               inkscape:connector-curvature="0" /></g></g></g></g><g
       id="g1151"><g
         id="g1153"><g
           id="g1159"><g
             id="g1161"><path
               d="m 51.954,106.494 c -0.512,0 -0.756,-0.224 -0.686,-0.688 v 0 c 0.134,-0.859 1.157,-1.667 1.685,-2.356 v 0 c 1.741,-2.274 4.951,-6.772 10.357,-15.274 v 0 L 78.985,62.096 C 86.191,49.821 85.081,44.28 85.081,44.28 v 0 c 3.802,4.829 -9.298,33.993 -29.187,58.715 v 0 C 79.887,88.645 86.507,55.049 87.854,45.349 v 0 C 87.827,45.542 86.95,77.718 70.751,94.322 v 0 l -3.801,3.324 c -7.21,5.607 -13.044,8.848 -14.995,8.848 v 0 z"
               style="fill:url(#linearGradient1169);stroke:none"
               id="path1171"
               inkscape:connector-curvature="0" /></g></g></g></g><g
       id="g1173"><g
         id="g1175"><g
           id="g1181"><g
             id="g1183"><path
               d="M 29.433,71.045 C 36.739,51.864 65.812,34.332 65.973,34.226 v 0 C 57.843,39.683 30.538,60.345 28.141,88.2 v 0 C 41.658,59.495 60.656,35.273 66.664,36.574 v 0 c 0,0 -3.985,1.104 -11.863,12.956 v 0 L 38.218,75.044 C 32.94,83.626 28.484,93.386 27.64,93.587 v 0 c -0.061,0.016 -0.123,0.023 -0.187,0.023 v 0 c -1.773,-0.001 -4.408,-5.795 1.98,-22.565"
               style="fill:url(#linearGradient1191);stroke:none"
               id="path1193"
               inkscape:connector-curvature="0" /></g></g></g></g><g
       id="g1195"><g
         id="g1197"><g
           id="g1203"><g
             id="g1205"><path
               d="m 73.499,110.605 c -1.865,0.315 -3.709,0.454 -5.513,0.454 v 0 c -14.435,-10e-4 -26.364,-8.948 -26.41,-9.066 v 0 c 9.143,3.374 13.317,4.914 24.495,5.18 v 0 c 9.928,0.238 23.825,-1.592 33.678,-11.65 v 0 c -2.29,2.448 -4.545,4.323 -6.584,5.872 v 0 c -12.295,8.126 -25.76,7.985 -34.918,6.426 v 0 c -4.27,-0.725 -7.394,-1.754 -8.731,-2.192 v 0 c 1.138,0.496 1.86,0.801 2.967,1.241 v 0 c 10.096,3.295 25.316,5.011 40.625,-5.432 v 0 c -0.902,0.683 -1.762,1.303 -2.563,1.881 v 0 c -4.042,2.513 -9.576,5.954 -20.161,6.787 v 0 c -0.111,0.008 -0.222,0.016 -0.329,0.025 v 0 c -0.11,0.005 -0.22,0.014 -0.328,0.02 v 0 c -0.11,0.005 -0.219,0.013 -0.328,0.017 v 0 c -0.109,0.006 -0.218,0.012 -0.329,0.014 v 0 c -0.108,0.006 -0.218,0.011 -0.327,0.014 v 0 c -0.11,0.005 -0.219,0.008 -0.327,0.012 v 0 c -0.111,0.004 -0.219,0.006 -0.328,0.007 v 0 c -0.108,0.002 -0.218,0.004 -0.494,0.004 v 0 c -2.101,-0.185 -4.211,-0.27 -6.305,-0.556 v 0 c 6.958,1.382 10.826,1.327 16.546,-0.238 v 0 l -1.066,0.331 c -1.363,0.38 -2.361,0.642 -3.27,0.849 v 0 c 0.054,-0.009 0.106,-0.017 0.16,-0.027 v 0 c -2.148,0.48 -3.536,0.721 -5.728,0.988 v 0 c 2.612,-0.39 3.947,-0.59 5.568,-0.961 m 4.357,-1.187 -10e-4,10e-4 c -0.008,0.002 -0.014,0.004 -0.02,0.006 v 0 z m 15.309,-8.023 c 0.063,-0.042 0.127,-0.085 0.19,-0.128 v 0 c -0.082,0.058 -0.164,0.114 -0.247,0.171 v 0 c 0.019,-0.015 0.038,-0.03 0.057,-0.043 m 2.56,-3.357 c -0.017,-0.182 -0.051,-0.518 0.91,-1.53 v 0 c 4.031,-4.231 13.469,-14.136 16.3,-27.759 v 0 c 0.117,-0.563 0.212,-1.1 0.293,-1.603 v 0 c -1.328,9.111 -4.632,17.388 -14.395,28.195 v 0 c 2.955,-2.098 5.22,-5.193 6.538,-7.063 v 0 c -0.588,0.886 -1.202,1.781 -1.714,2.538 v 0 c -5.319,6.955 -7.585,7.224 -7.894,7.224 v 0 c -0.024,0 -0.036,-0.002 -0.038,-0.002 M 63.932,96.954 c -0.671,0 -1.148,-0.136 -1.393,-0.415 v 0 C 62.325,96.295 62.22,95.704 62.523,95.585 v 0 C 79.418,89 97.874,71.882 97.874,71.882 v 0 C 111.69,56.07 110.438,43.984 110.084,42.496 v 0 c 0.075,0.093 0.185,0.229 0.234,0.289 v 0 l 0.099,0.211 c 0.443,1.101 0.492,1.35 0.739,2.96 v 0 c -0.064,-0.69 0.735,3.024 -0.028,9.229 v 0 l -0.725,3.325 c -9.419,22.741 -39.25,38.443 -46.47,38.444 v 0 c -10e-4,0 -10e-4,0 -10e-4,0 m 19.999,-1.742 5.038,-3.397 c 21.853,-13.777 24.737,-27.541 24.765,-32.999 v 0 l -0.03,-1.007 0.043,1.178 c 0.063,3.685 0.238,13.452 -7.305,23.278 v 0 c -4.896,6.379 -10.635,9.781 -11.273,10.149 v 0 c -5.637,3.242 -9.576,4.528 -11.267,4.528 v 0 c -1.209,0 -1.267,-0.66 0.029,-1.73 m 16.039,0.073 -0.2,0.217 c -0.007,0.006 -0.014,0.014 -0.021,0.021 v 0 c 0.074,-0.079 0.147,-0.158 0.221,-0.238 m -82.417,-8.543 -0.605,-0.966 -0.96,-1.79 c 1.211,2.18 2.721,3.903 4.959,5.679 v 0 c -3.982,-3.858 -5.497,-6.95 -6.833,-9.677 v 0 l -0.17,-0.411 c -0.278,-0.69 -0.587,-1.553 -0.872,-2.353 v 0 c 2.979,7.913 8.44,12.522 10.285,14.077 v 0 c 0.884,0.745 0.896,0.911 0.9,0.989 v 0 c -0.026,0 -3.709,-1.39 -6.704,-5.548 m 3.385,-14.24 c 0.324,1.244 1.791,6.894 1.999,8.304 v 0 c 0,0 -13.312,-19.35 -3.175,-45.304 v 0 l 0.023,-0.053 C 25.616,21.53 36.779,13.725 45.308,11.06 v 0 h 10e-4 0.002 v -0.001 h 0.002 0.002 l 0.147,0.029 c -0.096,0.04 -0.224,0.094 -0.321,0.135 v 0 c -0.005,0.003 -0.011,0.004 -0.017,0.008 v 0 c -2.745,1.125 -4.928,2.196 -7.976,4.327 v 0 c 1.456,-0.928 2.105,-0.853 2.346,-0.824 v 0 c -0.056,0.267 -0.056,0.267 -1.047,1.009 v 0 c -5.6,4.196 -13.127,12.271 -17.171,26.908 v 0 c 0,0 -6.143,21.927 8.087,46.22 v 0 c 0,0 -5.858,-6.683 -8.425,-16.369 m 85.047,14.841 -0.365,0.582 c -0.078,0.112 -0.161,0.23 -0.249,0.353 v 0 c 0.211,-0.316 0.417,-0.629 0.614,-0.935 m 0.644,-1.029 c -0.196,0.325 -0.415,0.672 -0.644,1.029 v 0 z m -90.913,-2.832 0.272,0.504 c -0.093,-0.165 -0.183,-0.334 -0.272,-0.504 m -2.998,-7.251 c 0.11,0.305 0.23,0.643 0.354,0.993 v 0 C 12.95,76.899 12.831,76.568 12.718,76.231 M 11.391,71.396 11.27,70.863 c -0.594,-2.881 -0.611,-3.07 -1.056,-7.894 v 0 l 3.131,13.348 C 13.192,76.252 12.69,75.643 11.391,71.396 m 7.504,-38.807 c 0.984,-2.001 2.296,-4.495 7.542,-10.143 v 0 c 0.946,-0.965 2.354,-2.096 3.375,-2.982 v 0 c 1.03,-0.812 2.473,-1.799 3.533,-2.563 v 0 c 1.796,-1.117 4.26,-2.495 6.129,-3.484 v 0 c -7.291,3.925 -14.791,9.296 -20.297,21.926 v 0 c 0,0 -6.617,11.974 -4.004,36.519 v 0 c 0,0 -5.74,-20.059 3.722,-39.273 m 94.733,31.236 -0.07,0.829 c -0.08,0.681 -0.176,1.527 -0.33,2.492 v 0 c 0.159,-1.093 0.29,-2.197 0.4,-3.321 M 64.422,54.021 c 0,0 5.23,-10.851 8.552,-15.731 v 0 C 76.297,33.41 87.608,17.602 90.733,17.115 v 0 l 0.234,0.076 c 0.338,0.391 0.785,0.912 1.123,1.303 v 0 C 73.141,43.124 72.067,46.148 68.501,56.174 v 0 C 89.273,35.318 94.69,22.428 94.058,19.453 v 0 l -0.003,-0.006 c 1.31,1.074 2.567,1.106 1.564,4.39 v 0 c -3.538,9.614 -10.715,20.26 -10.715,20.26 v 0 c -11.455,14.598 -20.07,20.2 -20.118,20.215 v 0 c -0.506,0.151 -0.939,0.226 -1.304,0.226 v 0 c -2.388,0 -1.794,-3.278 0.94,-10.517 m -54.288,6.453 10e-4,-0.022 c 0.08,-2.929 0.177,-4.662 0.368,-6.299 v 0 c -0.171,1.79 -0.144,3.151 -0.12,4.379 v 0 c 0.005,0.174 0.028,1.693 -0.138,2.294 v 0 c -0.062,-0.091 -0.098,-0.242 -0.111,-0.352 m 0.066,-3.041 0.049,-0.779 c -0.02,0.337 -0.04,0.695 -0.055,0.988 v 0 c 0,-0.064 0.003,-0.147 0.006,-0.209 m 0.081,-1.276 -0.032,0.497 c 0.011,-0.175 0.022,-0.344 0.032,-0.497 m 2.341,-11.842 c -0.66,2.193 -1.129,4.048 -1.463,5.647 v 0 c 0.051,-0.286 0.105,-0.585 0.159,-0.901 v 0 c -0.019,0.079 0.042,-0.187 0.061,-0.268 v 0 l 0.003,-0.009 0.61,-2.446 c 1.468,-4.963 2.638,-7.521 4.335,-10.672 v 0 c -0.257,0.548 -0.577,1.272 -1.071,2.389 v 0 l -0.412,1.104 c -2.169,5.558 -3.133,11.48 -2.959,17.444 v 0 c -0.785,-6.172 0.06,-9.564 0.737,-12.288 m -1.463,5.647 c -0.3,1.688 -0.506,2.91 -0.656,4.191 v 0 c 0.113,-1.182 0.313,-2.551 0.656,-4.191 m 18.662,-3.205 c 0,0 -1.583,-0.712 -0.95,-4.196 v 0 c 0.757,-4.163 5.61,-32.066 29.855,-34.153 v 0 l 0.201,-0.012 c 0.945,-0.046 2.122,-0.057 3.19,-0.065 v 0 c -2.235,0.038 -4.714,0.244 -7.039,1.067 v 0 C 55.29,9.383 55.57,9.382 55.785,9.378 v 0 l 0.163,0.366 H 55.945 55.944 V 9.745 H 55.942 V 9.746 H 55.939 V 9.749 H 55.937 C 33.763,16.783 31.215,42.451 31.74,43.581 v 0 C 39.138,34.687 43.5,23.507 52.613,15.906 v 0 C 61.436,8.549 69.566,9.232 72.626,9.49 v 0 l 2,0.392 c 0.765,0.194 1.777,0.494 2.539,0.709 v 0 C 73.631,9.783 61.572,11.844 54.427,17.796 v 0 C 48.466,22.759 36.091,42.221 36.091,42.221 v 0 c -2.98,3.912 -4.039,4.874 -5.014,4.874 v 0 c -0.392,0 -0.771,-0.156 -1.256,-0.338 m 80.202,-4.336 c -0.009,-0.126 0.02,-0.098 0.061,0.075 v 0 c -0.026,-0.03 -0.047,-0.058 -0.061,-0.075 m 0,0 c -0.02,-0.024 -0.023,-0.029 0,0 M 17.637,33.277 c -0.473,0.856 -0.907,1.639 -1.31,2.389 v 0 c 0.442,-0.945 0.691,-1.368 1.31,-2.389 M 63.224,8.325 c -0.345,0.002 -0.718,0.004 -1.107,0.006 v 0 c 0.376,-0.006 0.746,-0.008 1.107,-0.006"
               style="fill:url(#linearGradient1213);stroke:none"
               id="path1215"
               inkscape:connector-curvature="0" /></g></g></g></g><g
       id="g1217"><g
         id="g1219"><g
           id="g1225"><g
             id="g1227"><path
               d="m 78.184,75.942 c -4.005,-10e-4 2.339,-9.219 5.302,-13.523 v 0 c 3.925,-5.7 14.349,-20.843 16.035,-31.51 v 0 c 0,0 1.065,-4.973 -0.285,-7.219 v 0 c 3.09,5.143 4.609,15.483 -13.662,41.19 v 0 c -3.938,5.541 -3.944,5.559 -4.201,6.421 v 0 c 23.967,-12.91 26.314,-27.683 24.06,-37.806 v 0 c 0.004,0.004 0.029,0.04 0.168,0.352 v 0 c 8.182,18.51 -14.857,35.474 -14.857,35.474 v 0 c -6.997,4.819 -10.789,6.621 -12.559,6.621 v 0 c 0,0 0,0 -0.001,0 m 27.248,-42.448 v -10e-4 -0.001 h 0.001 l -0.001,0.001 c 0,0 0,0 0.001,0.002 v 0 c -0.001,-10e-4 -0.001,-10e-4 -0.001,-10e-4 m -0.001,-0.003 v 10e-4 z m 0,-10e-4 v 10e-4 z m -10e-4,-0.002 c 10e-4,0 10e-4,10e-4 10e-4,10e-4 v 0 z"
               style="fill:url(#linearGradient1235);stroke:none"
               id="path1237"
               inkscape:connector-curvature="0" /></g></g></g></g><g
       id="g1239"><g
         id="g1241"><g
           id="g1247"><g
             id="g1249"><path
               d="m 41.6,57.424 1.232,-5.437 C 52.028,27.088 66.644,15.529 77.558,12.398 v 0 l 2.118,-0.356 0.003,-10e-4 V 12.04 l 0.003,0.001 0.283,0.005 c 0.35,0.059 0.806,0.172 1.146,0.272 v 0 l 0.262,0.106 c 0.19,0.093 0.355,0.357 0.438,0.552 v 0 C 69.53,14.98 44.486,40.99 42.503,71.304 v 0 C 56.549,39.819 77.171,9.88 88.407,15.567 v 0 l 0.004,0.003 0.003,10e-4 0.002,10e-4 h 0.001 l 0.005,0.003 h 0.002 l 0.003,0.002 0.164,0.1 c 0.09,0.111 0.213,0.263 0.301,0.375 v 0 H 88.89 88.889 L 88.887,16.051 C 83.059,16.493 77.928,21.554 71.87,29.318 v 0 L 53.155,56.786 c -5.542,9.443 -8.3,14.776 -9.636,17.586 v 0 c -0.404,0.853 -0.678,2.243 -1.443,2.797 v 0 c -0.141,0.102 -0.277,0.152 -0.407,0.152 v 0 c -1.681,0 -2.235,-8.458 -0.069,-19.897"
               style="fill:url(#linearGradient1257);stroke:none"
               id="path1259"
               inkscape:connector-curvature="0" /></g></g></g></g><g
       aria-label="GAZ NATUREL
ÉLECTRICITÉ RENOUVELABLE
BOIS"
       transform="scale(1,-1)"
       style="font-variant:normal;font-weight:500;font-stretch:normal;font-size:12px;font-family:'Nevo Medium';-inkscape-font-specification:Nevo-Medium;writing-mode:lr-tb;fill:#319f59;fill-opacity:1;fill-rule:nonzero;stroke:none;stroke-width:0.99999994"
       id="text4750"><path
         d="m 318.98619,-17.586226 v 2.904 c -0.516,0.552 -1.236,0.888 -2.124,0.888 -1.98,0 -3.024,-1.68 -3.024,-3.732 0,-2.028 1.044,-3.708 3.036,-3.708 0.864,0 1.716,0.336 2.328,1.128 l 0.756,-0.636 c -0.708,-0.912 -1.788,-1.452 -3.108,-1.452 -2.676,0 -4.104,2.232 -4.104,4.68 0,2.436 1.392,4.692 4.116,4.692 1.332,0 2.4,-0.552 3.084,-1.452 v -3.396 z"
         style="fill:#04a5ab;fill-opacity:1;stroke-width:0.99999994"
         id="path1920"
         inkscape:connector-curvature="0" /><path
         d="m 329.00619,-12.894226 c -0.444,-3.084 -1.968,-6.432 -3.408,-9.24 h -1.02 c -1.44,2.808 -2.952,6.156 -3.408,9.24 h 1.008 c 0.132,-0.852 0.336,-1.74 0.6,-2.616 h 4.62 c 0.264,0.876 0.48,1.764 0.6,2.616 z m -5.916,-3.552 c 0.552,-1.608 1.272,-3.192 2.004,-4.68 0.732,1.488 1.452,3.072 2.004,4.68 z"
         style="fill:#04a5ab;fill-opacity:1;stroke-width:0.99999994"
         id="path1922"
         inkscape:connector-curvature="0" /><path
         d="m 336.68618,-22.134226 h -6.024 l 0.084,0.96 h 4.776 c -0.744,2.592 -4.092,4.152 -5.316,7.308 v 0.972 h 6.624 l -0.084,-0.96 h -5.292 c 1.236,-2.964 4.392,-4.2 5.232,-7.26 z"
         style="fill:#04a5ab;fill-opacity:1;stroke-width:0.99999994"
         id="path1924"
         inkscape:connector-curvature="0" /><path
         d="m 349.04617,-22.134226 -1.008,0.084 v 7.992 c -1.608,-1.812 -3.72,-7.44 -5.04,-8.076 h -0.996 v 9.24 h 1.008 l -0.012,-7.884 c 1.524,2.148 3.384,7.296 5.04,7.884 h 1.008 z"
         style="fill:#04a5ab;fill-opacity:1;stroke-width:0.99999994"
         id="path1926"
         inkscape:connector-curvature="0" /><path
         d="m 358.32217,-12.894226 c -0.444,-3.084 -1.968,-6.432 -3.408,-9.24 h -1.02 c -1.44,2.808 -2.952,6.156 -3.408,9.24 h 1.008 c 0.132,-0.852 0.336,-1.74 0.6,-2.616 h 4.62 c 0.264,0.876 0.48,1.764 0.6,2.616 z m -5.916,-3.552 c 0.552,-1.608 1.272,-3.192 2.004,-4.68 0.732,1.488 1.452,3.072 2.004,4.68 z"
         style="fill:#04a5ab;fill-opacity:1;stroke-width:0.99999994"
         id="path1928"
         inkscape:connector-curvature="0" /><path
         d="m 364.61019,-21.270226 0.084,-0.864 h -6.168 l -0.084,0.864 h 2.628 v 8.376 h 1.008 v -8.376 z"
         style="fill:#04a5ab;fill-opacity:1;stroke-width:0.99999994"
         id="path1930"
         inkscape:connector-curvature="0" /><path
         d="m 369.19417,-12.834226 c -1.608,0 -3.36,-0.96 -3.36,-3.036 v -6.18 l 1.008,-0.084 v 6.168 c 0,1.236 0.876,2.136 2.352,2.136 1.308,0 2.292,-0.912 2.292,-2.136 v -6.084 l 1.008,-0.084 v 6.264 c 0,2.028 -1.8,3.036 -3.3,3.036 z"
         style="fill:#04a5ab;fill-opacity:1;stroke-width:0.99999994"
         id="path1932"
         inkscape:connector-curvature="0" /><path
         d="m 379.0822,-12.894226 h 1.08 l -1.644,-3.972 c 0.828,-0.504 1.428,-1.332 1.428,-2.448 0.012,-1.968 -1.524,-2.88 -3.216,-2.88 -0.864,0 -1.56,0.048 -2.616,0.3 v 9 h 1.008 v -3.432 c 0.336,0.036 0.72,0.06 1.224,0.048 0.408,0 0.828,-0.06 1.224,-0.18 z m -3.96,-8.136 c 0.6,-0.132 1.2,-0.168 1.608,-0.168 1.2,0 2.184,0.588 2.184,1.884 0,1.224 -1.176,2.028 -2.568,2.028 -0.492,0.012 -0.888,-0.024 -1.224,-0.048 z"
         style="fill:#04a5ab;fill-opacity:1;stroke-width:0.99999994"
         id="path1934"
         inkscape:connector-curvature="0" /><path
         d="m 387.45821,-13.842226 h -4.86 v -3.276 h 4.284 l 0.084,-0.936 h -4.368 v -3.132 h 4.644 l 0.084,-0.948 h -5.736 v 9.24 h 5.784 z"
         style="fill:#04a5ab;fill-opacity:1;stroke-width:0.99999994"
         id="path1936"
         inkscape:connector-curvature="0" /><path
         d="m 394.71817,-13.842226 h -4.812 v -8.292 l -1.008,0.084 v 9.156 h 5.748 z"
         style="fill:#04a5ab;fill-opacity:1;stroke-width:0.99999994"
         id="path1938"
         inkscape:connector-curvature="0" /><path
         d="m 133.5382,-22.890226 1.68,-1.248 h -1.236 l -1.308,1.248 z m 2.832,9.048 h -4.86 v -3.276 h 4.284 l 0.084,-0.936 h -4.368 v -3.132 h 4.644 l 0.084,-0.948 h -5.736 v 9.24 h 5.784 z"
         style="fill:#90c33e;fill-opacity:1;stroke-width:0.99999994"
         id="path1940"
         inkscape:connector-curvature="0" /><path
         d="m 143.6302,-13.842226 h -4.812 v -8.292 l -1.008,0.084 v 9.156 h 5.748 z"
         style="fill:#90c33e;fill-opacity:1;stroke-width:0.99999994"
         id="path1942"
         inkscape:connector-curvature="0" /><path
         d="m 150.6982,-13.842226 h -4.86 v -3.276 h 4.284 l 0.084,-0.936 h -4.368 v -3.132 h 4.644 l 0.084,-0.948 h -5.736 v 9.24 h 5.784 z"
         style="fill:#90c33e;fill-opacity:1;stroke-width:0.99999994"
         id="path1944"
         inkscape:connector-curvature="0" /><path
         d="m 158.83421,-20.742226 c -0.708,-0.912 -1.788,-1.452 -3.108,-1.452 -2.676,0 -4.104,2.232 -4.104,4.68 0,2.436 1.404,4.692 4.116,4.692 1.332,0 2.4,-0.552 3.096,-1.452 l -0.732,-0.684 c -0.528,0.708 -1.356,1.164 -2.364,1.164 -1.98,0 -3.024,-1.68 -3.024,-3.72 0,-2.04 1.044,-3.72 3.012,-3.72 0.888,0 1.752,0.336 2.352,1.128 z"
         style="fill:#90c33e;fill-opacity:1;stroke-width:0.99999994"
         id="path1946"
         inkscape:connector-curvature="0" /><path
         d="m 165.8182,-21.270226 0.084,-0.864 h -6.168 l -0.084,0.864 h 2.628 v 8.376 h 1.008 v -8.376 z"
         style="fill:#90c33e;fill-opacity:1;stroke-width:0.99999994"
         id="path1948"
         inkscape:connector-curvature="0" /><path
         d="m 172.07021,-12.894226 h 1.08 l -1.644,-3.972 c 0.828,-0.504 1.428,-1.332 1.428,-2.448 0.012,-1.968 -1.524,-2.88 -3.216,-2.88 -0.864,0 -1.56,0.048 -2.616,0.3 v 9 h 1.008 v -3.432 c 0.336,0.036 0.72,0.06 1.224,0.048 0.408,0 0.828,-0.06 1.224,-0.18 z m -3.96,-8.136 c 0.6,-0.132 1.2,-0.168 1.608,-0.168 1.2,0 2.184,0.588 2.184,1.884 0,1.224 -1.176,2.028 -2.568,2.028 -0.492,0.012 -0.888,-0.024 -1.224,-0.048 z"
         style="fill:#90c33e;fill-opacity:1;stroke-width:0.99999994"
         id="path1950"
         inkscape:connector-curvature="0" /><path
         d="m 175.7662,-22.134226 -1.008,0.084 v 9.156 h 1.008 z"
         style="fill:#90c33e;fill-opacity:1;stroke-width:0.99999994"
         id="path1952"
         inkscape:connector-curvature="0" /><path
         d="m 184.56221,-20.742226 c -0.708,-0.912 -1.788,-1.452 -3.108,-1.452 -2.676,0 -4.104,2.232 -4.104,4.68 0,2.436 1.404,4.692 4.116,4.692 1.332,0 2.4,-0.552 3.096,-1.452 l -0.732,-0.684 c -0.528,0.708 -1.356,1.164 -2.364,1.164 -1.98,0 -3.024,-1.68 -3.024,-3.72 0,-2.04 1.044,-3.72 3.012,-3.72 0.888,0 1.752,0.336 2.352,1.128 z"
         style="fill:#90c33e;fill-opacity:1;stroke-width:0.99999994"
         id="path1954"
         inkscape:connector-curvature="0" /><path
         d="m 187.16501,-22.134226 -1.008,0.084 v 9.156 h 1.008 z"
         style="fill:#90c33e;fill-opacity:1;stroke-width:0.99999994"
         id="path1956"
         inkscape:connector-curvature="0" /><path
         d="m 194.833,-21.270226 0.084,-0.864 h -6.168 l -0.084,0.864 h 2.628 v 8.376 h 1.008 v -8.376 z"
         style="fill:#90c33e;fill-opacity:1;stroke-width:0.99999994"
         id="path1958"
         inkscape:connector-curvature="0" /><path
         d="m 199.15301,-22.890226 1.68,-1.248 h -1.236 l -1.308,1.248 z m 2.832,9.048 h -4.86 v -3.276 h 4.284 l 0.084,-0.936 h -4.368 v -3.132 h 4.644 l 0.084,-0.948 h -5.736 v 9.24 h 5.784 z"
         style="fill:#90c33e;fill-opacity:1;stroke-width:0.99999994"
         id="path1960"
         inkscape:connector-curvature="0" /><path
         d="m 212.233,-12.894226 h 1.08 l -1.644,-3.972 c 0.828,-0.504 1.428,-1.332 1.428,-2.448 0.012,-1.968 -1.524,-2.88 -3.216,-2.88 -0.864,0 -1.56,0.048 -2.616,0.3 v 9 h 1.008 v -3.432 c 0.336,0.036 0.72,0.06 1.224,0.048 0.408,0 0.828,-0.06 1.224,-0.18 z m -3.96,-8.136 c 0.6,-0.132 1.2,-0.168 1.608,-0.168 1.2,0 2.184,0.588 2.184,1.884 0,1.224 -1.176,2.028 -2.568,2.028 -0.492,0.012 -0.888,-0.024 -1.224,-0.048 z"
         style="fill:#90c33e;fill-opacity:1;stroke-width:0.99999994"
         id="path1962"
         inkscape:connector-curvature="0" /><path
         d="m 220.60781,-13.842226 h -4.86 v -3.276 h 4.284 l 0.084,-0.936 h -4.368 v -3.132 h 4.644 l 0.084,-0.948 h -5.736 v 9.24 h 5.784 z"
         style="fill:#90c33e;fill-opacity:1;stroke-width:0.99999994"
         id="path1964"
         inkscape:connector-curvature="0" /><path
         d="m 229.09181,-22.134226 -1.008,0.084 v 7.992 c -1.608,-1.812 -3.72,-7.44 -5.04,-8.076 h -0.996 v 9.24 h 1.008 l -0.012,-7.884 c 1.524,2.148 3.384,7.296 5.04,7.884 h 1.008 z"
         style="fill:#90c33e;fill-opacity:1;stroke-width:0.99999994"
         id="path1966"
         inkscape:connector-curvature="0" /><path
         d="m 238.72779,-17.526226 c 0,-2.436 -1.416,-4.668 -4.104,-4.668 -2.724,0 -4.128,2.232 -4.128,4.668 0,2.448 1.404,4.704 4.128,4.704 2.688,0 4.104,-2.256 4.104,-4.704 z m -4.104,-3.708 c 1.98,0 3.024,1.68 3.024,3.708 0,2.028 -1.044,3.732 -3.024,3.732 -1.992,0 -3.036,-1.68 -3.036,-3.732 0,-2.028 1.044,-3.708 3.036,-3.708 z"
         style="fill:#90c33e;fill-opacity:1;stroke-width:0.99999994"
         id="path1968"
         inkscape:connector-curvature="0" /><path
         d="m 243.3118,-12.834226 c -1.608,0 -3.36,-0.96 -3.36,-3.036 v -6.18 l 1.008,-0.084 v 6.168 c 0,1.236 0.876,2.136 2.352,2.136 1.308,0 2.292,-0.912 2.292,-2.136 v -6.084 l 1.008,-0.084 v 6.264 c 0,2.028 -1.8,3.036 -3.3,3.036 z"
         style="fill:#90c33e;fill-opacity:1;stroke-width:0.99999994"
         id="path1970"
         inkscape:connector-curvature="0" /><path
         d="m 254.57979,-22.134226 c -0.636,2.724 -1.68,5.64 -2.904,8.22 -1.224,-2.58 -2.268,-5.496 -2.916,-8.22 h -1.008 c 0.732,3.084 1.98,6.432 3.42,9.24 h 1.008 c 1.44,-2.808 2.688,-6.156 3.408,-9.24 z"
         style="fill:#90c33e;fill-opacity:1;stroke-width:0.99999994"
         id="path1972"
         inkscape:connector-curvature="0" /><path
         d="m 262.65578,-13.842226 h -4.86 v -3.276 h 4.284 l 0.084,-0.936 h -4.368 v -3.132 h 4.644 l 0.084,-0.948 h -5.736 v 9.24 h 5.784 z"
         style="fill:#90c33e;fill-opacity:1;stroke-width:0.99999994"
         id="path1974"
         inkscape:connector-curvature="0" /><path
         d="m 269.91577,-13.842226 h -4.812 v -8.292 l -1.008,0.084 v 9.156 h 5.748 z"
         style="fill:#90c33e;fill-opacity:1;stroke-width:0.99999994"
         id="path1976"
         inkscape:connector-curvature="0" /><path
         d="m 278.71179,-12.894226 c -0.444,-3.084 -1.968,-6.432 -3.408,-9.24 h -1.02 c -1.44,2.808 -2.952,6.156 -3.408,9.24 h 1.008 c 0.132,-0.852 0.336,-1.74 0.6,-2.616 h 4.62 c 0.264,0.876 0.48,1.764 0.6,2.616 z m -5.916,-3.552 c 0.552,-1.608 1.272,-3.192 2.004,-4.68 0.732,1.488 1.452,3.072 2.004,4.68 z"
         style="fill:#90c33e;fill-opacity:1;stroke-width:0.99999994"
         id="path1978"
         inkscape:connector-curvature="0" /><path
         d="m 286.12777,-15.486226 c 0,-1.38 -0.636,-2.028 -1.668,-2.292 0.744,-0.42 1.176,-1.14 1.176,-2.016 0,-1.416 -1.152,-2.4 -2.796,-2.4 -0.996,0 -1.872,0.084 -2.688,0.3 v 8.712 0.012 c 0.948,0.264 1.824,0.348 2.82,0.348 2.016,0 3.168,-1.008 3.156,-2.664 z m -3.276,-5.76 c 1.128,0 1.836,0.552 1.836,1.5 0,1.008 -0.672,1.728 -2.04,1.728 h -1.536 v -3.12 c 0.492,-0.096 1.008,-0.108 1.74,-0.108 z m 0.12,7.5 c -0.444,0 -1.164,-0.012 -1.86,-0.156 v -3.312 h 1.752 c 1.428,0 2.304,0.396 2.304,1.644 0,1.2 -0.804,1.824 -2.196,1.824 z"
         style="fill:#90c33e;fill-opacity:1;stroke-width:0.99999994"
         id="path1980"
         inkscape:connector-curvature="0" /><path
         d="m 293.20779,-13.842226 h -4.812 v -8.292 l -1.008,0.084 v 9.156 h 5.748 z"
         style="fill:#90c33e;fill-opacity:1;stroke-width:0.99999994"
         id="path1982"
         inkscape:connector-curvature="0" /><path
         d="m 300.27578,-13.842226 h -4.86 v -3.276 h 4.284 l 0.084,-0.936 h -4.368 v -3.132 h 4.644 l 0.084,-0.948 h -5.736 v 9.24 h 5.784 z"
         style="fill:#90c33e;fill-opacity:1;stroke-width:0.99999994"
         id="path1984"
         inkscape:connector-curvature="0" /><path
         d="m 413.33016,-15.486226 c 0,-1.38 -0.636,-2.028 -1.668,-2.292 0.744,-0.42 1.176,-1.14 1.176,-2.016 0,-1.416 -1.152,-2.4 -2.796,-2.4 -0.996,0 -1.872,0.084 -2.688,0.3 v 8.712 0.012 c 0.948,0.264 1.824,0.348 2.82,0.348 2.016,0 3.168,-1.008 3.156,-2.664 z m -3.276,-5.76 c 1.128,0 1.836,0.552 1.836,1.5 0,1.008 -0.672,1.728 -2.04,1.728 h -1.536 v -3.12 c 0.492,-0.096 1.008,-0.108 1.74,-0.108 z m 0.12,7.5 c -0.444,0 -1.164,-0.012 -1.86,-0.156 v -3.312 h 1.752 c 1.428,0 2.304,0.396 2.304,1.644 0,1.2 -0.804,1.824 -2.196,1.824 z"
         style="fill:#189b5e;fill-opacity:1;stroke-width:0.99999994"
         id="path1986"
         inkscape:connector-curvature="0" /><path
         d="m 422.54502,-17.526226 c 0,-2.436 -1.416,-4.668 -4.104,-4.668 -2.724,0 -4.128,2.232 -4.128,4.668 0,2.448 1.404,4.704 4.128,4.704 2.688,0 4.104,-2.256 4.104,-4.704 z m -4.104,-3.708 c 1.98,0 3.024,1.68 3.024,3.708 0,2.028 -1.044,3.732 -3.024,3.732 -1.992,0 -3.036,-1.68 -3.036,-3.732 0,-2.028 1.044,-3.708 3.036,-3.708 z"
         style="fill:#189b5e;fill-opacity:1;stroke-width:0.99999994"
         id="path1988"
         inkscape:connector-curvature="0" /><path
         d="m 425.13701,-22.134226 -1.008,0.084 v 9.156 h 1.008 z"
         style="fill:#189b5e;fill-opacity:1;stroke-width:0.99999994"
         id="path1990"
         inkscape:connector-curvature="0" /><path
         d="m 431.98898,-21.738226 c -0.552,-0.228 -1.368,-0.456 -2.124,-0.456 -1.452,0 -3,0.78 -3,2.496 0,1.008 0.636,1.824 2.124,2.352 1.368,0.492 2.4,0.996 2.4,1.836 0,1.008 -0.732,1.68 -2.184,1.68 -0.636,0 -1.668,-0.216 -2.232,-0.6 l -0.252,0.96 c 0.564,0.384 1.644,0.648 2.484,0.648 1.632,0 3.216,-0.72 3.216,-2.616 0,-1.14 -0.792,-1.944 -2.508,-2.568 -1.452,-0.54 -1.98,-0.948 -1.98,-1.68 0,-0.924 0.888,-1.548 1.932,-1.548 0.564,0 1.272,0.18 1.836,0.396 z"
         style="fill:#189b5e;fill-opacity:1;stroke-width:0.99999994"
         id="path1992"
         inkscape:connector-curvature="0" /></g></g></svg>